<svg xmlns="http://www.w3.org/2000/svg" xmlns:xlink="http://www.w3.org/1999/xlink" contentStyleType="text/css" data-diagram-type="DESCRIPTION" height="489px" preserveAspectRatio="none" style="width:956px;height:489px;background:#FFFFFF;" version="1.1" viewBox="0 0 956 489" width="956px" zoomAndPan="magnify"><title>Diagrama de Casos de Uso - Sistema de Biblioteca Acad&#234;mica
(Fluxos Principais)</title><defs/><g><g class="title" data-source-line="18"><text fill="#000000" font-family="Verdana" font-size="22" font-weight="bold" lengthAdjust="spacing" textLength="765.499" x="91.007" y="35.4209">Diagrama de Casos de Uso - Sistema de Biblioteca Acad&#234;mica</text><text fill="#000000" font-family="Verdana" font-size="22" font-weight="bold" lengthAdjust="spacing" textLength="230.3877" x="358.5626" y="61.0303">(Fluxos Principais)</text></g><!--cluster Sistema de Controle de Empr?stimos de Biblioteca--><g class="cluster" data-entity="Sistema de Controle de Empr.stimos de Biblioteca" data-source-line="34" data-uid="ent0007" id="cluster_Sistema de Controle de Empr.stimos de Biblioteca"><rect fill="#FFFFFF" height="263.04" rx="2.5" ry="2.5" style="stroke:#000000;stroke-width:1;" width="685" x="12" y="220.0187"/><text fill="#000000" font-family="Verdana" font-size="14" font-weight="bold" lengthAdjust="spacing" textLength="400.1758" x="154.4121" y="235.0139">Sistema de Controle de Empr&#233;stimos de Biblioteca</text></g><!--entity UC01--><g class="entity" data-entity="UC01" data-source-line="37" data-uid="ent0008" id="entity_UC01"><ellipse cx="631.0042" cy="436.8391" fill="#90EE90" rx="49.7642" ry="30.0203" style="stroke:#00008B;stroke-width:2;"/><text fill="#000000" font-family="Verdana" font-size="12" lengthAdjust="spacing" textLength="36.7617" x="612.6234" y="422.4622">UC-01</text><text fill="#000000" font-family="Verdana" font-size="12" lengthAdjust="spacing" textLength="48.3281" x="606.8402" y="436.431">Realizar</text><text fill="#000000" font-family="Verdana" font-size="12" lengthAdjust="spacing" textLength="72.5273" x="594.7406" y="450.3997">Empr&#233;stimo</text></g><!--entity UC02--><g class="entity" data-entity="UC02" data-source-line="38" data-uid="ent0009" id="entity_UC02"><ellipse cx="71.9983" cy="285.3069" fill="#90EE90" rx="44.2183" ry="30.2881" style="stroke:#00008B;stroke-width:2;"/><text fill="#000000" font-family="Verdana" font-size="12" lengthAdjust="spacing" textLength="36.7617" x="53.6175" y="271.351">UC-02</text><text fill="#000000" font-family="Verdana" font-size="12" lengthAdjust="spacing" textLength="58.2832" x="42.8567" y="285.3198">Processar</text><text fill="#000000" font-family="Verdana" font-size="12" lengthAdjust="spacing" textLength="63.2988" x="40.3489" y="299.2885">Devolu&#231;&#227;o</text></g><!--entity UC03--><g class="entity" data-entity="UC03" data-source-line="39" data-uid="ent0010" id="entity_UC03"><ellipse cx="201.0042" cy="285.3091" fill="#90EE90" rx="49.7642" ry="30.0203" style="stroke:#00008B;stroke-width:2;"/><text fill="#000000" font-family="Verdana" font-size="12" lengthAdjust="spacing" textLength="36.7617" x="182.6234" y="270.9322">UC-03</text><text fill="#000000" font-family="Verdana" font-size="12" lengthAdjust="spacing" textLength="50.0566" x="175.9759" y="284.901">Renovar</text><text fill="#000000" font-family="Verdana" font-size="12" lengthAdjust="spacing" textLength="72.5273" x="164.7406" y="298.8697">Empr&#233;stimo</text></g><!--entity UC04--><g class="entity" data-entity="UC04" data-source-line="40" data-uid="ent0011" id="entity_UC04"><ellipse cx="508.9978" cy="436.841" fill="#90EE90" rx="37.0278" ry="30.2223" style="stroke:#00008B;stroke-width:2;"/><text fill="#000000" font-family="Verdana" font-size="12" lengthAdjust="spacing" textLength="36.7617" x="490.617" y="424.4007">UC-04</text><text fill="#000000" font-family="Verdana" font-size="12" lengthAdjust="spacing" textLength="48.5508" x="484.7225" y="438.3695">Solicitar</text><text fill="#000000" font-family="Verdana" font-size="12" lengthAdjust="spacing" textLength="48.7441" x="484.6258" y="452.3382">Reserva</text></g><!--entity UC05--><g class="entity" data-entity="UC05" data-source-line="41" data-uid="ent0012" id="entity_UC05"><ellipse cx="351.9955" cy="285.3051" fill="#90EE90" rx="65.8555" ry="26.2863" style="stroke:#00008B;stroke-width:2;"/><text fill="#000000" font-family="Verdana" font-size="12" lengthAdjust="spacing" textLength="36.7617" x="333.6147" y="273.5054">UC-05</text><text fill="#000000" font-family="Verdana" font-size="12" lengthAdjust="spacing" textLength="113.1152" x="295.4379" y="287.4742">Processar Retirada</text><text fill="#000000" font-family="Verdana" font-size="12" lengthAdjust="spacing" textLength="67.5586" x="318.2162" y="301.4429">de Reserva</text></g><!--entity UC06--><g class="entity" data-entity="UC06" data-source-line="42" data-uid="ent0013" id="entity_UC06"><ellipse cx="646.0023" cy="285.3046" fill="#90EE90" rx="34.5323" ry="28.2258" style="stroke:#00008B;stroke-width:2;"/><text fill="#000000" font-family="Verdana" font-size="12" lengthAdjust="spacing" textLength="36.7617" x="627.6214" y="275.2766">UC-06</text><text fill="#000000" font-family="Verdana" font-size="12" lengthAdjust="spacing" textLength="34.4941" x="628.7552" y="289.2454">Pagar</text><text fill="#000000" font-family="Verdana" font-size="12" lengthAdjust="spacing" textLength="33.3516" x="629.3265" y="303.2141">Multa</text></g><!--entity UC07--><g class="entity" data-entity="UC07" data-source-line="43" data-uid="ent0014" id="entity_UC07"><ellipse cx="515.0027" cy="285.3068" fill="#90EE90" rx="61.8127" ry="29.6981" style="stroke:#00008B;stroke-width:2;"/><text fill="#000000" font-family="Verdana" font-size="12" lengthAdjust="spacing" textLength="36.7617" x="496.6218" y="270.4149">UC-07</text><text fill="#000000" font-family="Verdana" font-size="12" lengthAdjust="spacing" textLength="57.5098" x="486.2478" y="284.3836">Consultar</text><text fill="#000000" font-family="Verdana" font-size="12" lengthAdjust="spacing" textLength="92.3145" x="468.8455" y="298.3524">Disponibilidade</text></g><!--entity Bib--><g class="entity" data-entity="Bib" data-source-line="23" data-uid="ent0002" id="entity_Bib"><ellipse cx="821.0025" cy="257.4087" fill="#F5DEB3" rx="8" ry="8" style="stroke:#FF8C00;stroke-width:2;"/><path d="M821.0025,265.4087 L821.0025,292.4087 M808.0025,273.4087 L834.0025,273.4087 M821.0025,292.4087 L808.0025,307.4087 M821.0025,292.4087 L834.0025,307.4087" fill="none" style="stroke:#FF8C00;stroke-width:2;"/><text fill="#000000" font-family="Verdana" font-size="11" lengthAdjust="spacing" textLength="68.605" x="786.7" y="320.6192">Bibliotec&#225;rio</text></g><!--entity Aux--><g class="entity" data-entity="Aux" data-source-line="24" data-uid="ent0003" id="entity_Aux"><ellipse cx="452.999" cy="91.2188" fill="#F5DEB3" rx="8" ry="8" style="stroke:#FF8C00;stroke-width:2;"/><path d="M452.999,99.2188 L452.999,126.2188 M439.999,107.2188 L465.999,107.2188 M452.999,126.2188 L439.999,141.2188 M452.999,126.2188 L465.999,141.2188" fill="none" style="stroke:#FF8C00;stroke-width:2;"/><text fill="#000000" font-family="Verdana" font-size="11" lengthAdjust="spacing" textLength="41.438" x="432.28" y="154.4292">Auxiliar</text></g><!--entity Usuario--><g class="entity" data-entity="Usuario" data-source-line="25" data-uid="ent0004" id="entity_Usuario"><ellipse cx="920.0015" cy="251.0087" fill="#F5DEB3" rx="8" ry="8" style="stroke:#FF8C00;stroke-width:2;"/><path d="M920.0015,259.0087 L920.0015,286.0087 M907.0015,267.0087 L933.0015,267.0087 M920.0015,286.0087 L907.0015,301.0087 M920.0015,286.0087 L933.0015,301.0087" fill="none" style="stroke:#FF8C00;stroke-width:2;"/><text fill="#000000" font-family="Verdana" font-size="11" lengthAdjust="spacing" textLength="59.0229" x="890.49" y="314.2192">Usu&#225;rio da</text><text fill="#000000" font-family="Verdana" font-size="11" lengthAdjust="spacing" textLength="54.2964" x="890.49" y="327.0239">Biblioteca</text></g><!--reverse link Aux to Bib--><g class="link" data-entity-1="Aux" data-entity-2="Bib" data-source-line="29" data-uid="lnk6" id="link_Aux_Bib"><path d="M492.1877,119.0811 C545.3777,118.2311 668.74,122.8687 760,187.0187 C781.04,201.8087 796.36,226.3987 806.39,247.1587" fill="none" id="Aux-backto-Bib" style="stroke:#000000;stroke-width:1;"/><polygon fill="none" points="474.19,119.3687,492.2836,125.0804,492.0918,113.0819,474.19,119.3687" style="stroke:#000000;stroke-width:1;"/><text fill="#000000" font-family="Verdana" font-size="13" lengthAdjust="spacing" textLength="37.8003" x="779" y="200.0856">herda</text></g><!--link Aux to UC01--><g class="link" data-entity-1="Aux" data-entity-2="UC01" data-source-line="52" data-uid="lnk15" id="link_Aux_UC01"><path d="M474.13,120.5887 C523.41,122.9787 645.73,136.5988 698,212.0187 C741.2,274.3688 689.1317,360.2425 655.9817,404.6025" fill="none" id="Aux-to-UC01" style="stroke:#000000;stroke-width:1;"/><polygon fill="#000000" points="652.39,409.4088,660.9817,404.5938,655.3831,405.4036,654.5734,399.805,652.39,409.4088" style="stroke:#000000;stroke-width:1;"/></g><!--link Aux to UC02--><g class="link" data-entity-1="Aux" data-entity-2="UC02" data-source-line="55" data-uid="lnk16" id="link_Aux_UC02"><path d="M431.9,121.9987 C378.16,127.6387 233.4,148.1487 134,212.0187 C116.06,223.5487 103.9681,236.9584 92.9081,252.2384" fill="none" id="Aux-to-UC02" style="stroke:#000000;stroke-width:1;"/><polygon fill="#000000" points="89.39,257.0988,97.9073,252.1535,92.3217,253.0484,91.4268,247.4628,89.39,257.0988" style="stroke:#000000;stroke-width:1;"/></g><!--link Aux to UC03--><g class="link" data-entity-1="Aux" data-entity-2="UC03" data-source-line="58" data-uid="lnk17" id="link_Aux_UC03"><path d="M432.07,127.7587 C396.45,141.3387 322.72,172.0587 269,212.0187 C251.44,225.0787 238.4643,238.4142 225.9143,253.1242" fill="none" id="Aux-to-UC03" style="stroke:#000000;stroke-width:1;"/><polygon fill="#000000" points="222.02,257.6887,230.9044,253.4382,225.2652,253.885,224.8184,248.2458,222.02,257.6887" style="stroke:#000000;stroke-width:1;"/></g><!--link Usuario to UC04--><g class="link" data-entity-1="Usuario" data-entity-2="UC04" data-source-line="61" data-uid="lnk18" id="link_Usuario_UC04"><path d="M890.1,317.8187 C884.74,322.2587 878.96,326.3987 873,329.6188 C748.41,396.7687 696.14,355.9188 564,406.6188 C555.52,409.8688 551.9818,411.3196 543.9418,415.5796" fill="none" id="Usuario-to-UC04" style="stroke:#000000;stroke-width:1;"/><polygon fill="#000000" points="538.64,418.3887,548.4654,417.7095,543.0581,416.0478,544.7199,410.6405,538.64,418.3887" style="stroke:#000000;stroke-width:1;"/><text fill="#000000" font-family="Verdana" font-size="13" lengthAdjust="spacing" textLength="80.2661" x="800" y="372.6856">diretamente</text></g><!--link Aux to UC05--><g class="link" data-entity-1="Aux" data-entity-2="UC05" data-source-line="64" data-uid="lnk19" id="link_Aux_UC05"><path d="M431.83,154.5388 C412.56,185.8488 387.733,226.2178 370.533,254.1878" fill="none" id="Aux-to-UC05" style="stroke:#000000;stroke-width:1;"/><polygon fill="#000000" points="367.39,259.2988,375.5117,253.7276,370.0091,255.0396,368.6971,249.537,367.39,259.2988" style="stroke:#000000;stroke-width:1;"/></g><!--link UC05 to UC01--><g class="link" data-entity-1="UC05" data-entity-2="UC01" data-source-line="65" data-uid="lnk20" id="link_UC05_UC01"><path d="M368.92,310.7887 C384.5,331.4487 409.47,360.2087 438,376.6188 C487.91,405.3088 509.4,388.3688 564,406.6188 C573.27,409.7087 577.5064,411.2223 586.6164,415.1323" fill="none" id="UC05-to-UC01" style="stroke:#000000;stroke-width:1;stroke-dasharray:7,7;"/><polygon fill="#000000" points="592.13,417.4988,585.4372,410.2733,587.5353,415.5267,582.2819,417.6248,592.13,417.4988" style="stroke:#000000;stroke-width:1;"/><text fill="#000000" font-family="Verdana" font-size="13" lengthAdjust="spacing" textLength="63.0068" x="439" y="372.6856">&#171;include&#187;</text></g><!--link Bib to UC06--><g class="link" data-entity-1="Bib" data-entity-2="UC06" data-source-line="68" data-uid="lnk21" id="link_Bib_UC06"><path d="M786.24,285.3088 C751.11,285.3088 721.99,285.3088 686.86,285.3088" fill="none" id="Bib-to-UC06" style="stroke:#000000;stroke-width:1;"/><polygon fill="#000000" points="680.86,285.3088,689.86,289.3088,685.86,285.3088,689.86,281.3088,680.86,285.3088" style="stroke:#000000;stroke-width:1;"/></g><!--link Aux to UC07--><g class="link" data-entity-1="Aux" data-entity-2="UC07" data-source-line="71" data-uid="lnk22" id="link_Aux_UC07"><path d="M467.07,157.3787 C478.32,187.1787 491.75,222.7458 502.05,250.0158" fill="none" id="Aux-to-UC07" style="stroke:#000000;stroke-width:1;"/><polygon fill="#000000" points="504.17,255.6287,504.7319,245.7959,502.4033,250.9513,497.248,248.6227,504.17,255.6287" style="stroke:#000000;stroke-width:1;"/></g><!--link Usuario to UC07--><g class="link" data-entity-1="Usuario" data-entity-2="UC07" data-source-line="72" data-uid="lnk23" id="link_Usuario_UC07"><path d="M903.37,240.5887 C893.04,219.5787 877.46,196.5388 855.5,184.5187 C807.94,158.4887 661.37,163.2288 611.5,184.5187 C577.41,199.0787 553.0184,227.3078 536.1584,251.6278" fill="none" id="Usuario-to-UC07" style="stroke:#000000;stroke-width:1;"/><polygon fill="#000000" points="532.74,256.5588,541.1549,251.4413,535.5887,252.4496,534.5803,246.8834,532.74,256.5588" style="stroke:#000000;stroke-width:1;"/></g><!--link UC02 to UC04--><g class="link" data-entity-1="UC02" data-entity-2="UC04" data-source-line="75" data-uid="lnk24" id="link_UC02_UC04"><path d="M100.1,308.9087 C110.32,316.3088 122.26,324.0488 134,329.6188 C251.54,385.3588 398.1261,416.2189 466.7761,428.6589" fill="none" id="UC02-to-UC04" style="stroke:#000000;stroke-width:1;stroke-dasharray:7,7;"/><polygon fill="#000000" points="472.68,429.7288,464.5374,424.1881,467.7601,428.8372,463.111,432.0599,472.68,429.7288" style="stroke:#000000;stroke-width:1;"/><text fill="#000000" font-family="Verdana" font-size="13" lengthAdjust="spacing" textLength="61.1851" x="255" y="372.6856">&#171;extend&#187;</text></g><!--link UC07 to UC04--><g class="link" data-entity-1="UC07" data-entity-2="UC04" data-source-line="76" data-uid="lnk25" id="link_UC07_UC04"><path d="M513.83,315.4988 C512.78,341.6688 511.4792,373.9035 510.4292,400.2235" fill="none" id="UC07-to-UC04" style="stroke:#000000;stroke-width:1;stroke-dasharray:7,7;"/><polygon fill="#000000" points="510.19,406.2187,514.5456,397.3854,510.3893,401.2227,506.5519,397.0665,510.19,406.2187" style="stroke:#000000;stroke-width:1;"/><text fill="#000000" font-family="Verdana" font-size="13" lengthAdjust="spacing" textLength="61.1851" x="513" y="372.6856">&#171;extend&#187;</text></g><!--SRC=[ZLHDRzf04BtxLqpfeUs1Y6yKb28vnf6GIa0Or0kNZJs55MONxQwZD6b_JDL3rKezzXVmnpgxniHAugeS4EoyDszstio-CXlS8UnJneNt1W8fFl5rfjZXn-4FQaWGK1kUIazlkTWpnNQmP_6MhJ4odrC4XR5XOfrY2P1fZ9b6UF20FfS4NokPYIIGgLJmSSCDvX6f4bJvwOYfxMMQbGEB3O-t0hM6bZkzai94_1wXsVA-bkHOR2X1bHWoywBOL57P_oVN93dgpUBmssJK2SCDNNp4sPhKcMrHmBHqlLfg2NM8k3QOHoxvJSgbeNw07xFay6l7OxOIRw_Ix8ueCyL5pFUCwtTMuVqB7phs5zDv65N5y-lNJag7RuhB6Z1jnOkedztnb3FbpkbFSRxKcSD3GbKz5kjW56CKycnbSqnPpALWEnH60dqf14OfK7j4WtgshtyPsimmW0sgXFtZFj4uMeGJlmfm6YcebJf9ascKf4Fw7Uxswl2JvdANjxrS-8Fdt7Ev8V2ZQGIZ49RH56RpyNKmdldZoCOSgfZKsZAeDvehCKUMydkcLg8aaJSZQ3JXzNaZ3CyRpwcjbPWf6TFmMEu8RsMQqGPzFt5RrTosbHNojaArNStih4GaKnvpOxbprAXkMS7hLFEwfMh9MSCLi_PJ8v_aw5Rdw54EjhQwaomr9qQlcj5V2V9GMxJj4TTxAVWDJMN24Ypu_HC_txcA2Pg77_nWFBts9-7rObgv6dJkZ1r0OMnvT3mxhVMXixQ0jWRms9gIZoLigy2sRLfdN4NMTe7i3E1aLD5ZxxXUHso7zYRX2etRC2oOtN8zXLNmw5H9hUivnyxEyXjHleiBUbtIBC7XiCZNetpMDd2kvQlhyBq2qH_0oIPuub99hV-a_lxpLq8VducuU1qpBJst2ySQEwv6l3Ce4YhHsVzYw2y0]--></g></svg>